<mxfile host="Electron" modified="2024-07-14T21:39:41.271Z" agent="Mozilla/5.0 (Windows NT 10.0; Win64; x64) AppleWebKit/537.36 (KHTML, like Gecko) draw.io/24.6.4 Chrome/124.0.6367.207 Electron/30.0.6 Safari/537.36" etag="6BrKTwOhH-qzH0vTlNVG" version="24.6.4" type="device">
  <diagram name="Page-1" id="2YBvvXClWsGukQMizWep">
    <mxGraphModel dx="1941" dy="688" grid="0" gridSize="10" guides="1" tooltips="1" connect="1" arrows="1" fold="1" page="1" pageScale="1" pageWidth="850" pageHeight="1100" math="0" shadow="0">
      <root>
        <mxCell id="0" />
        <mxCell id="1" parent="0" />
        <mxCell id="WCHNIAT9K_ILjIIEiZOM-87" value="React App" style="shape=umlLifeline;perimeter=lifelinePerimeter;whiteSpace=wrap;html=1;container=0;dropTarget=0;collapsible=0;recursiveResize=0;outlineConnect=0;portConstraint=eastwest;newEdgeStyle={&quot;edgeStyle&quot;:&quot;elbowEdgeStyle&quot;,&quot;elbow&quot;:&quot;vertical&quot;,&quot;curved&quot;:0,&quot;rounded&quot;:0};fontStyle=4;size=40;" parent="1" vertex="1">
          <mxGeometry x="-417" y="49" width="100" height="566" as="geometry" />
        </mxCell>
        <mxCell id="WCHNIAT9K_ILjIIEiZOM-90" value="" style="html=1;points=[];perimeter=orthogonalPerimeter;outlineConnect=0;targetShapes=umlLifeline;portConstraint=eastwest;newEdgeStyle={&quot;edgeStyle&quot;:&quot;elbowEdgeStyle&quot;,&quot;elbow&quot;:&quot;vertical&quot;,&quot;curved&quot;:0,&quot;rounded&quot;:0};fontStyle=4" parent="WCHNIAT9K_ILjIIEiZOM-87" vertex="1">
          <mxGeometry x="45" y="76" width="10" height="422" as="geometry" />
        </mxCell>
        <mxCell id="WCHNIAT9K_ILjIIEiZOM-12" value="CommentController" style="shape=umlLifeline;perimeter=lifelinePerimeter;whiteSpace=wrap;html=1;container=0;dropTarget=0;collapsible=0;recursiveResize=0;outlineConnect=0;portConstraint=eastwest;newEdgeStyle={&quot;edgeStyle&quot;:&quot;elbowEdgeStyle&quot;,&quot;elbow&quot;:&quot;vertical&quot;,&quot;curved&quot;:0,&quot;rounded&quot;:0};fontStyle=4" parent="1" vertex="1">
          <mxGeometry y="49" width="120" height="578" as="geometry" />
        </mxCell>
        <mxCell id="WCHNIAT9K_ILjIIEiZOM-13" value="" style="html=1;points=[];perimeter=orthogonalPerimeter;outlineConnect=0;targetShapes=umlLifeline;portConstraint=eastwest;newEdgeStyle={&quot;edgeStyle&quot;:&quot;elbowEdgeStyle&quot;,&quot;elbow&quot;:&quot;vertical&quot;,&quot;curved&quot;:0,&quot;rounded&quot;:0};fontStyle=4" parent="WCHNIAT9K_ILjIIEiZOM-12" vertex="1">
          <mxGeometry x="55" y="90" width="10" height="398" as="geometry" />
        </mxCell>
        <mxCell id="WCHNIAT9K_ILjIIEiZOM-19" value="CommentModel" style="shape=umlLifeline;perimeter=lifelinePerimeter;whiteSpace=wrap;html=1;container=0;dropTarget=0;collapsible=0;recursiveResize=0;outlineConnect=0;portConstraint=eastwest;newEdgeStyle={&quot;edgeStyle&quot;:&quot;elbowEdgeStyle&quot;,&quot;elbow&quot;:&quot;vertical&quot;,&quot;curved&quot;:0,&quot;rounded&quot;:0};fontStyle=4;size=37;" parent="1" vertex="1">
          <mxGeometry x="190" y="49" width="120" height="595" as="geometry" />
        </mxCell>
        <mxCell id="WCHNIAT9K_ILjIIEiZOM-20" value="" style="html=1;points=[];perimeter=orthogonalPerimeter;outlineConnect=0;targetShapes=umlLifeline;portConstraint=eastwest;newEdgeStyle={&quot;edgeStyle&quot;:&quot;elbowEdgeStyle&quot;,&quot;elbow&quot;:&quot;vertical&quot;,&quot;curved&quot;:0,&quot;rounded&quot;:0};fontStyle=4" parent="WCHNIAT9K_ILjIIEiZOM-19" vertex="1">
          <mxGeometry x="55" y="90" width="10" height="369" as="geometry" />
        </mxCell>
        <mxCell id="WCHNIAT9K_ILjIIEiZOM-16" value="" style="html=1;verticalAlign=bottom;endArrow=block;edgeStyle=elbowEdgeStyle;elbow=horizontal;curved=0;rounded=0;fontStyle=4" parent="1" source="WCHNIAT9K_ILjIIEiZOM-10" target="WCHNIAT9K_ILjIIEiZOM-13" edge="1">
          <mxGeometry relative="1" as="geometry">
            <mxPoint x="-146" y="161" as="sourcePoint" />
            <Array as="points">
              <mxPoint x="-86" y="161" />
            </Array>
            <mxPoint x="14" y="161.06" as="targetPoint" />
            <mxPoint as="offset" />
          </mxGeometry>
        </mxCell>
        <mxCell id="WCHNIAT9K_ILjIIEiZOM-7" value="" style="html=1;verticalAlign=bottom;endArrow=block;edgeStyle=elbowEdgeStyle;elbow=horizontal;curved=0;rounded=0;fontStyle=4" parent="1" source="WCHNIAT9K_ILjIIEiZOM-90" target="WCHNIAT9K_ILjIIEiZOM-10" edge="1">
          <mxGeometry relative="1" as="geometry">
            <mxPoint x="-361" y="135" as="sourcePoint" />
            <Array as="points">
              <mxPoint x="-280" y="135" />
            </Array>
            <mxPoint x="-220" y="135" as="targetPoint" />
            <mxPoint as="offset" />
          </mxGeometry>
        </mxCell>
        <mxCell id="WCHNIAT9K_ILjIIEiZOM-21" value="" style="html=1;verticalAlign=bottom;endArrow=block;edgeStyle=elbowEdgeStyle;elbow=vertical;curved=0;rounded=0;fontStyle=4;" parent="1" target="WCHNIAT9K_ILjIIEiZOM-20" edge="1">
          <mxGeometry x="-0.0279" y="2" relative="1" as="geometry">
            <mxPoint x="66" y="180" as="sourcePoint" />
            <Array as="points">
              <mxPoint x="153" y="180" />
            </Array>
            <mxPoint x="240" y="180" as="targetPoint" />
            <mxPoint as="offset" />
          </mxGeometry>
        </mxCell>
        <mxCell id="WCHNIAT9K_ILjIIEiZOM-9" value="Router" style="shape=umlLifeline;perimeter=lifelinePerimeter;whiteSpace=wrap;html=1;container=0;dropTarget=0;collapsible=0;recursiveResize=0;outlineConnect=0;portConstraint=eastwest;newEdgeStyle={&quot;edgeStyle&quot;:&quot;elbowEdgeStyle&quot;,&quot;elbow&quot;:&quot;vertical&quot;,&quot;curved&quot;:0,&quot;rounded&quot;:0};fontStyle=4" parent="1" vertex="1">
          <mxGeometry x="-206" y="52.5" width="100" height="568.5" as="geometry" />
        </mxCell>
        <mxCell id="WCHNIAT9K_ILjIIEiZOM-10" value="" style="html=1;points=[];perimeter=orthogonalPerimeter;outlineConnect=0;targetShapes=umlLifeline;portConstraint=eastwest;newEdgeStyle={&quot;edgeStyle&quot;:&quot;elbowEdgeStyle&quot;,&quot;elbow&quot;:&quot;vertical&quot;,&quot;curved&quot;:0,&quot;rounded&quot;:0};fontStyle=4" parent="WCHNIAT9K_ILjIIEiZOM-9" vertex="1">
          <mxGeometry x="45" y="80" width="10" height="412" as="geometry" />
        </mxCell>
        <mxCell id="WCHNIAT9K_ILjIIEiZOM-53" value="Return Error" style="html=1;verticalAlign=bottom;endArrow=block;dashed=1;endSize=8;edgeStyle=elbowEdgeStyle;elbow=vertical;curved=0;rounded=0;endFill=1;fontStyle=0" parent="1" edge="1">
          <mxGeometry relative="1" as="geometry">
            <mxPoint x="66" y="364" as="targetPoint" />
            <Array as="points">
              <mxPoint x="131" y="364" />
            </Array>
            <mxPoint x="245" y="363" as="sourcePoint" />
            <mxPoint as="offset" />
          </mxGeometry>
        </mxCell>
        <mxCell id="WCHNIAT9K_ILjIIEiZOM-54" value="&lt;font style=&quot;font-size: 10px;&quot;&gt;Return Error&lt;/font&gt;" style="html=1;verticalAlign=bottom;endArrow=block;dashed=1;endSize=8;edgeStyle=elbowEdgeStyle;elbow=horizontal;curved=0;rounded=0;endFill=1;fontStyle=0;" parent="1" edge="1">
          <mxGeometry x="-0.0945" relative="1" as="geometry">
            <mxPoint x="-151" y="372" as="targetPoint" />
            <Array as="points">
              <mxPoint x="-56" y="371" />
            </Array>
            <mxPoint x="54" y="371" as="sourcePoint" />
            <mxPoint as="offset" />
          </mxGeometry>
        </mxCell>
        <mxCell id="WCHNIAT9K_ILjIIEiZOM-38" value="&lt;font style=&quot;font-size: 12px;&quot;&gt;Comment not found&lt;/font&gt;" style="shape=umlFrame;whiteSpace=wrap;html=1;pointerEvents=0;width=153;height=16;" parent="1" vertex="1">
          <mxGeometry x="-729" y="215" width="1030" height="105" as="geometry" />
        </mxCell>
        <mxCell id="WCHNIAT9K_ILjIIEiZOM-57" value="Error" style="shape=umlFrame;whiteSpace=wrap;html=1;pointerEvents=0;width=153;height=16;" parent="1" vertex="1">
          <mxGeometry x="-728" y="333" width="1031" height="105" as="geometry" />
        </mxCell>
        <mxCell id="WCHNIAT9K_ILjIIEiZOM-58" value="&lt;font style=&quot;font-size: 10px;&quot;&gt;Show error message&amp;nbsp;&lt;/font&gt;" style="html=1;verticalAlign=bottom;endArrow=block;dashed=1;endSize=8;edgeStyle=elbowEdgeStyle;elbow=vertical;curved=0;rounded=0;endFill=1;fontStyle=0" parent="1" source="WCHNIAT9K_ILjIIEiZOM-10" edge="1">
          <mxGeometry x="-0.0945" relative="1" as="geometry">
            <mxPoint x="-362" y="378" as="targetPoint" />
            <Array as="points" />
            <mxPoint x="-239" y="379" as="sourcePoint" />
            <mxPoint as="offset" />
          </mxGeometry>
        </mxCell>
        <mxCell id="WCHNIAT9K_ILjIIEiZOM-61" value="&lt;font style=&quot;font-size: 12px;&quot;&gt;Success&lt;/font&gt;" style="shape=umlFrame;whiteSpace=wrap;html=1;pointerEvents=0;width=61;height=16;" parent="1" vertex="1">
          <mxGeometry x="-732" y="454" width="1034.5" height="105" as="geometry" />
        </mxCell>
        <mxCell id="WCHNIAT9K_ILjIIEiZOM-62" value="Return Comment" style="html=1;verticalAlign=bottom;endArrow=block;dashed=1;endSize=8;edgeStyle=elbowEdgeStyle;elbow=vertical;curved=0;rounded=0;endFill=1;fontStyle=0" parent="1" edge="1">
          <mxGeometry relative="1" as="geometry">
            <mxPoint x="66" y="487" as="targetPoint" />
            <Array as="points">
              <mxPoint x="131" y="487" />
            </Array>
            <mxPoint x="245" y="486" as="sourcePoint" />
            <mxPoint as="offset" />
          </mxGeometry>
        </mxCell>
        <mxCell id="WCHNIAT9K_ILjIIEiZOM-63" value="&lt;font style=&quot;font-size: 10px;&quot;&gt;Return Comment&lt;/font&gt;" style="html=1;verticalAlign=bottom;endArrow=block;dashed=1;endSize=8;edgeStyle=elbowEdgeStyle;elbow=vertical;curved=0;rounded=0;endFill=1;fontStyle=0" parent="1" target="WCHNIAT9K_ILjIIEiZOM-10" edge="1">
          <mxGeometry x="-0.0945" relative="1" as="geometry">
            <mxPoint x="-209" y="501" as="targetPoint" />
            <Array as="points">
              <mxPoint x="-57" y="501" />
            </Array>
            <mxPoint x="53" y="501" as="sourcePoint" />
            <mxPoint as="offset" />
          </mxGeometry>
        </mxCell>
        <mxCell id="WCHNIAT9K_ILjIIEiZOM-64" value="&lt;font style=&quot;font-size: 10px;&quot;&gt;Show Comment&lt;/font&gt;" style="html=1;verticalAlign=bottom;endArrow=block;dashed=1;endSize=8;edgeStyle=elbowEdgeStyle;elbow=horizontal;curved=0;rounded=0;endFill=1;fontStyle=0;exitX=0;exitY=0.926;exitDx=0;exitDy=0;exitPerimeter=0;" parent="1" source="WCHNIAT9K_ILjIIEiZOM-10" edge="1">
          <mxGeometry x="-0.0945" relative="1" as="geometry">
            <mxPoint x="-362" y="514" as="targetPoint" />
            <Array as="points" />
            <mxPoint x="-219" y="514" as="sourcePoint" />
            <mxPoint as="offset" />
          </mxGeometry>
        </mxCell>
        <mxCell id="WCHNIAT9K_ILjIIEiZOM-74" value="findById" style="text;whiteSpace=wrap;html=1;" parent="1" vertex="1">
          <mxGeometry x="117" y="156" width="162.75" height="24.98" as="geometry" />
        </mxCell>
        <mxCell id="WCHNIAT9K_ILjIIEiZOM-79" value="&lt;span style=&quot;color: rgb(0, 0, 0); font-family: Helvetica; font-size: 11px; font-style: normal; font-variant-ligatures: normal; font-variant-caps: normal; font-weight: 400; letter-spacing: normal; orphans: 2; text-align: center; text-indent: 0px; text-transform: none; widows: 2; word-spacing: 0px; -webkit-text-stroke-width: 0px; white-space: nowrap; background-color: rgb(255, 255, 255); text-decoration-thickness: initial; text-decoration-style: initial; text-decoration-color: initial; display: inline !important; float: none;&quot;&gt;getComment   &lt;/span&gt;" style="text;whiteSpace=wrap;html=1;" parent="1" vertex="1">
          <mxGeometry x="-83" y="135" width="162.75" height="24.98" as="geometry" />
        </mxCell>
        <mxCell id="WCHNIAT9K_ILjIIEiZOM-80" value="&lt;span style=&quot;color: rgb(0, 0, 0); font-family: Helvetica; font-size: 11px; font-style: normal; font-variant-ligatures: normal; font-variant-caps: normal; font-weight: 400; letter-spacing: normal; orphans: 2; text-align: center; text-indent: 0px; text-transform: none; widows: 2; word-spacing: 0px; -webkit-text-stroke-width: 0px; white-space: nowrap; background-color: rgb(255, 255, 255); text-decoration-thickness: initial; text-decoration-style: initial; text-decoration-color: initial; display: inline !important; float: none;&quot;&gt;send GET IDcomment&lt;/span&gt;" style="text;whiteSpace=wrap;html=1;" parent="1" vertex="1">
          <mxGeometry x="-342" y="112" width="95" height="24.98" as="geometry" />
        </mxCell>
        <mxCell id="WCHNIAT9K_ILjIIEiZOM-91" value="&lt;span style=&quot;color: rgb(0, 0, 0); font-family: Helvetica; font-style: normal; font-variant-ligatures: normal; font-variant-caps: normal; font-weight: 400; letter-spacing: normal; orphans: 2; text-align: center; text-indent: 0px; text-transform: none; widows: 2; word-spacing: 0px; -webkit-text-stroke-width: 0px; white-space: nowrap; background-color: rgb(255, 255, 255); text-decoration-thickness: initial; text-decoration-style: initial; text-decoration-color: initial; float: none; display: inline !important;&quot;&gt;&lt;font style=&quot;font-size: 10px;&quot;&gt;Send requests to view a specific comment.&lt;/font&gt;&lt;/span&gt;" style="text;whiteSpace=wrap;html=1;container=0;" parent="1" vertex="1">
          <mxGeometry x="-577" y="110.02" width="80" height="24.98" as="geometry" />
        </mxCell>
        <mxCell id="WCHNIAT9K_ILjIIEiZOM-92" value="" style="html=1;verticalAlign=bottom;endArrow=block;edgeStyle=elbowEdgeStyle;elbow=horizontal;curved=0;rounded=0;fontStyle=4" parent="1" source="WCHNIAT9K_ILjIIEiZOM-67" edge="1">
          <mxGeometry relative="1" as="geometry">
            <mxPoint x="-578" y="130" as="sourcePoint" />
            <Array as="points">
              <mxPoint x="-424.5" y="129.98" />
            </Array>
            <mxPoint x="-372" y="129.98" as="targetPoint" />
            <mxPoint as="offset" />
          </mxGeometry>
        </mxCell>
        <mxCell id="WCHNIAT9K_ILjIIEiZOM-99" value="" style="html=1;verticalAlign=bottom;endArrow=block;dashed=1;endSize=8;edgeStyle=elbowEdgeStyle;elbow=vertical;curved=0;rounded=0;endFill=1;fontStyle=4" parent="1" edge="1">
          <mxGeometry x="-0.0945" relative="1" as="geometry">
            <mxPoint x="-580" y="396" as="targetPoint" />
            <Array as="points" />
            <mxPoint x="-374" y="396.01" as="sourcePoint" />
            <mxPoint as="offset" />
          </mxGeometry>
        </mxCell>
        <mxCell id="WCHNIAT9K_ILjIIEiZOM-100" value="&lt;span style=&quot;color: rgb(0, 0, 0); font-family: Helvetica; font-size: 10px; font-style: normal; font-variant-ligatures: normal; font-variant-caps: normal; font-weight: 400; letter-spacing: normal; orphans: 2; text-align: center; text-indent: 0px; text-transform: none; widows: 2; word-spacing: 0px; -webkit-text-stroke-width: 0px; white-space: nowrap; background-color: rgb(255, 255, 255); text-decoration-thickness: initial; text-decoration-style: initial; text-decoration-color: initial; display: inline !important; float: none;&quot;&gt;Display error message&lt;/span&gt;" style="text;whiteSpace=wrap;html=1;" parent="1" vertex="1">
          <mxGeometry x="-536.9953053792317" y="371.0043352254232" width="121" height="36" as="geometry" />
        </mxCell>
        <mxCell id="WCHNIAT9K_ILjIIEiZOM-101" value="" style="html=1;verticalAlign=bottom;endArrow=block;dashed=1;endSize=8;edgeStyle=elbowEdgeStyle;elbow=vertical;curved=0;rounded=0;endFill=1;fontStyle=4" parent="1" edge="1">
          <mxGeometry x="-0.0945" relative="1" as="geometry">
            <mxPoint x="-578.5" y="526" as="targetPoint" />
            <Array as="points" />
            <mxPoint x="-372" y="526" as="sourcePoint" />
            <mxPoint as="offset" />
          </mxGeometry>
        </mxCell>
        <mxCell id="WCHNIAT9K_ILjIIEiZOM-102" value="&lt;span style=&quot;color: rgb(0, 0, 0); font-family: Helvetica; font-size: 10px; font-style: normal; font-variant-ligatures: normal; font-variant-caps: normal; font-weight: 400; letter-spacing: normal; orphans: 2; text-align: center; text-indent: 0px; text-transform: none; widows: 2; word-spacing: 0px; -webkit-text-stroke-width: 0px; white-space: nowrap; background-color: rgb(255, 255, 255); text-decoration-thickness: initial; text-decoration-style: initial; text-decoration-color: initial; display: inline !important; float: none;&quot;&gt;Display comment&lt;/span&gt;" style="text;whiteSpace=wrap;html=1;" parent="1" vertex="1">
          <mxGeometry x="-533.4953053792317" y="501.0043352254232" width="121" height="36" as="geometry" />
        </mxCell>
        <mxCell id="WCHNIAT9K_ILjIIEiZOM-108" value="" style="group" parent="1" vertex="1" connectable="0">
          <mxGeometry x="-537.9953053792317" y="245.00433522542318" width="310" height="40.00999999999999" as="geometry" />
        </mxCell>
        <mxCell id="WCHNIAT9K_ILjIIEiZOM-81" value="&lt;span style=&quot;color: rgb(0, 0, 0); font-family: Helvetica; font-size: 10px; font-style: normal; font-variant-ligatures: normal; font-variant-caps: normal; font-weight: 400; letter-spacing: normal; orphans: 2; text-align: center; text-indent: 0px; text-transform: none; widows: 2; word-spacing: 0px; -webkit-text-stroke-width: 0px; white-space: nowrap; background-color: rgb(255, 255, 255); text-decoration-thickness: initial; text-decoration-style: initial; text-decoration-color: initial; display: inline !important; float: none;&quot;&gt;Show not found message&lt;/span&gt;" style="text;whiteSpace=wrap;html=1;" parent="WCHNIAT9K_ILjIIEiZOM-108" vertex="1">
          <mxGeometry x="189" width="121" height="36" as="geometry" />
        </mxCell>
        <mxCell id="WCHNIAT9K_ILjIIEiZOM-95" value="" style="html=1;verticalAlign=bottom;endArrow=block;dashed=1;endSize=8;edgeStyle=elbowEdgeStyle;elbow=vertical;curved=0;rounded=0;endFill=1;fontStyle=4" parent="WCHNIAT9K_ILjIIEiZOM-108" target="WCHNIAT9K_ILjIIEiZOM-67" edge="1">
          <mxGeometry x="-0.0945" relative="1" as="geometry">
            <mxPoint x="20.995305379231695" y="29.015664774576805" as="targetPoint" />
            <Array as="points" />
            <mxPoint x="162.9953053792317" y="29.015664774576805" as="sourcePoint" />
            <mxPoint as="offset" />
          </mxGeometry>
        </mxCell>
        <mxCell id="WCHNIAT9K_ILjIIEiZOM-96" value="&lt;span style=&quot;color: rgb(0, 0, 0); font-family: Helvetica; font-size: 10px; font-style: normal; font-variant-ligatures: normal; font-variant-caps: normal; font-weight: 400; letter-spacing: normal; orphans: 2; text-align: center; text-indent: 0px; text-transform: none; widows: 2; word-spacing: 0px; -webkit-text-stroke-width: 0px; white-space: nowrap; background-color: rgb(255, 255, 255); text-decoration-thickness: initial; text-decoration-style: initial; text-decoration-color: initial; display: inline !important; float: none;&quot;&gt;Display not found message&lt;/span&gt;" style="text;whiteSpace=wrap;html=1;" parent="WCHNIAT9K_ILjIIEiZOM-108" vertex="1">
          <mxGeometry y="4.009999999999991" width="121" height="36" as="geometry" />
        </mxCell>
        <mxCell id="WCHNIAT9K_ILjIIEiZOM-110" value="" style="group" parent="1" vertex="1" connectable="0">
          <mxGeometry x="-103.00197204589844" y="215.99766855875657" width="347.00197204589847" height="55" as="geometry" />
        </mxCell>
        <mxCell id="WCHNIAT9K_ILjIIEiZOM-22" value="" style="html=1;verticalAlign=bottom;endArrow=block;dashed=1;endSize=8;edgeStyle=elbowEdgeStyle;elbow=vertical;curved=0;rounded=0;endFill=1;fontStyle=4" parent="WCHNIAT9K_ILjIIEiZOM-110" target="WCHNIAT9K_ILjIIEiZOM-13" edge="1">
          <mxGeometry relative="1" as="geometry">
            <mxPoint x="133.00197204589844" y="24.002331441243427" as="targetPoint" />
            <Array as="points">
              <mxPoint x="233.00197204589844" y="24.002331441243427" />
            </Array>
            <mxPoint x="347.00197204589847" y="23.002331441243427" as="sourcePoint" />
          </mxGeometry>
        </mxCell>
        <mxCell id="WCHNIAT9K_ILjIIEiZOM-23" value="" style="html=1;verticalAlign=bottom;endArrow=block;dashed=1;endSize=8;edgeStyle=elbowEdgeStyle;elbow=vertical;curved=0;rounded=0;endFill=1;fontStyle=4" parent="WCHNIAT9K_ILjIIEiZOM-110" source="WCHNIAT9K_ILjIIEiZOM-13" target="WCHNIAT9K_ILjIIEiZOM-10" edge="1">
          <mxGeometry x="-0.0945" relative="1" as="geometry">
            <mxPoint x="-46.99802795410156" y="42.00233144124343" as="targetPoint" />
            <Array as="points">
              <mxPoint x="48.00197204589844" y="42.00233144124343" />
            </Array>
            <mxPoint x="123.00197204589844" y="42.00233144124343" as="sourcePoint" />
            <mxPoint as="offset" />
          </mxGeometry>
        </mxCell>
        <mxCell id="WCHNIAT9K_ILjIIEiZOM-68" value="&lt;span style=&quot;color: rgb(0, 0, 0); font-family: Helvetica; font-size: 10px; font-style: normal; font-variant-ligatures: normal; font-variant-caps: normal; font-weight: 400; letter-spacing: normal; orphans: 2; text-align: center; text-indent: 0px; text-transform: none; widows: 2; word-spacing: 0px; -webkit-text-stroke-width: 0px; white-space: nowrap; background-color: rgb(255, 255, 255); text-decoration-thickness: initial; text-decoration-style: initial; text-decoration-color: initial; display: inline !important; float: none;&quot;&gt;Return 404 message&lt;/span&gt;" style="text;whiteSpace=wrap;html=1;" parent="WCHNIAT9K_ILjIIEiZOM-110" vertex="1">
          <mxGeometry y="19" width="83" height="36" as="geometry" />
        </mxCell>
        <mxCell id="WCHNIAT9K_ILjIIEiZOM-69" value="&lt;span style=&quot;color: rgb(0, 0, 0); font-family: Helvetica; font-size: 11px; font-style: normal; font-variant-ligatures: normal; font-variant-caps: normal; font-weight: 400; letter-spacing: normal; orphans: 2; text-align: center; text-indent: 0px; text-transform: none; widows: 2; word-spacing: 0px; -webkit-text-stroke-width: 0px; white-space: nowrap; background-color: rgb(255, 255, 255); text-decoration-thickness: initial; text-decoration-style: initial; text-decoration-color: initial; display: inline !important; float: none;&quot;&gt;Return null&lt;/span&gt;" style="text;whiteSpace=wrap;html=1;" parent="WCHNIAT9K_ILjIIEiZOM-110" vertex="1">
          <mxGeometry x="223" width="106" height="37" as="geometry" />
        </mxCell>
        <mxCell id="WCHNIAT9K_ILjIIEiZOM-56" value="" style="html=1;verticalAlign=bottom;endArrow=block;dashed=1;endSize=8;edgeStyle=elbowEdgeStyle;elbow=vertical;curved=0;rounded=0;endFill=1;fontStyle=4" parent="1" source="WCHNIAT9K_ILjIIEiZOM-10" target="WCHNIAT9K_ILjIIEiZOM-90" edge="1">
          <mxGeometry x="-0.0945" relative="1" as="geometry">
            <mxPoint x="-364" y="267.01" as="targetPoint" />
            <Array as="points">
              <mxPoint x="-360.9953053792317" y="267.0043352254232" />
            </Array>
            <mxPoint x="-227" y="268.01" as="sourcePoint" />
            <mxPoint as="offset" />
          </mxGeometry>
        </mxCell>
        <mxCell id="Jrd6xonkru-D8rZdKlJJ-3" value="" style="group" vertex="1" connectable="0" parent="1">
          <mxGeometry x="-594" y="30" width="18" height="582" as="geometry" />
        </mxCell>
        <mxCell id="Jrd6xonkru-D8rZdKlJJ-4" value="" style="endArrow=none;dashed=1;html=1;rounded=0;" edge="1" parent="Jrd6xonkru-D8rZdKlJJ-3">
          <mxGeometry width="50" height="50" relative="1" as="geometry">
            <mxPoint x="9" y="582" as="sourcePoint" />
            <mxPoint x="9" y="79.81012658227849" as="targetPoint" />
          </mxGeometry>
        </mxCell>
        <mxCell id="Jrd6xonkru-D8rZdKlJJ-5" value="User" style="shape=umlActor;verticalLabelPosition=bottom;verticalAlign=top;html=1;outlineConnect=0;" vertex="1" parent="Jrd6xonkru-D8rZdKlJJ-3">
          <mxGeometry y="12.721311475409838" width="18" height="35.163825136612026" as="geometry" />
        </mxCell>
        <mxCell id="WCHNIAT9K_ILjIIEiZOM-67" value="" style="html=1;points=[];perimeter=orthogonalPerimeter;outlineConnect=0;targetShapes=umlLifeline;portConstraint=eastwest;newEdgeStyle={&quot;edgeStyle&quot;:&quot;elbowEdgeStyle&quot;,&quot;elbow&quot;:&quot;vertical&quot;,&quot;curved&quot;:0,&quot;rounded&quot;:0};fontStyle=4" parent="1" vertex="1">
          <mxGeometry x="-590" y="125" width="10" height="425" as="geometry" />
        </mxCell>
      </root>
    </mxGraphModel>
  </diagram>
</mxfile>
